<svg xmlns="http://www.w3.org/2000/svg" width="1920" height="760" viewBox="0 0 1920 760" role="img" aria-labelledby="title desc">
  <title id="title">Compra con prestamo</title>
  <desc id="desc">Hero Prestameya con productos y cuotas</desc>
  <rect width="1920" height="760" fill="#f8fafc"/>
  <rect x="980" y="100" width="620" height="470" rx="30" fill="#ffffff" stroke="#cbd5e1"/>
  <rect x="1040" y="170" width="500" height="66" rx="14" fill="#ecfeff"/>
  <rect x="1040" y="266" width="500" height="66" rx="14" fill="#fff7ed"/>
  <rect x="1040" y="362" width="500" height="66" rx="14" fill="#f0fdf4"/>
  <circle cx="1120" cy="203" r="24" fill="#0f766e"/>
  <circle cx="1120" cy="299" r="24" fill="#f97316"/>
  <circle cx="1120" cy="395" r="24" fill="#22c55e"/>
  <text x="1180" y="212" font-family="Inter, Arial, sans-serif" font-size="28" font-weight="750" fill="#0f172a">3 cuotas claras</text>
  <text x="1180" y="308" font-family="Inter, Arial, sans-serif" font-size="28" font-weight="750" fill="#0f172a">6 cuotas simples</text>
  <text x="1180" y="404" font-family="Inter, Arial, sans-serif" font-size="28" font-weight="750" fill="#0f172a">12 cuotas flexibles</text>
  <rect x="1180" y="480" width="270" height="56" rx="28" fill="#0f766e"/>
  <text x="1230" y="517" font-family="Inter, Arial, sans-serif" font-size="24" font-weight="800" fill="#ffffff">Simular pago</text>
  <rect x="240" y="150" width="470" height="320" rx="36" fill="#0f766e"/>
  <rect x="285" y="210" width="380" height="48" rx="12" fill="#ffffff" opacity="0.95"/>
  <rect x="285" y="290" width="300" height="32" rx="10" fill="#ccfbf1"/>
  <rect x="285" y="350" width="250" height="32" rx="10" fill="#fed7aa"/>
  <circle cx="710" cy="485" r="86" fill="#f97316"/>
  <path d="M675 487h72" stroke="#ffffff" stroke-width="20" stroke-linecap="round"/>
  <path d="M724 452l42 35-42 35" fill="none" stroke="#ffffff" stroke-width="20" stroke-linecap="round" stroke-linejoin="round"/>
</svg>